<?xml version="1.0" encoding="utf-8"?>

<svg version="1.1" id="Layer_1" xmlns="http://www.w3.org/2000/svg" xmlns:xlink="http://www.w3.org/1999/xlink" x="0px" y="0px" viewBox="0 0 2000 2000" style="enable-background:new 0 0 2000 2000;" xml:space="preserve">

<rect class="st0" width="2000" height="2000"></rect>
<g>
&#x9;<g>
&#x9;&#x9;<path class="st1" d="M1346.9,957.9h-67.1c8.6-10.4,18.4-20.7,28.4-31.3c36.8-38.6,78.4-82.4,78.4-153c0-84.4-56-136.8-146.1-136.8&#xA;&#x9;&#x9;&#x9;c-27.8,0-63.7,2.4-94.7,21.4c-8.2,5-16.9,11.8-24.9,20.8c-24.9-27.2-65.5-42.2-118.4-42.2c-63,0-99.8,20-121.1,45.4&#xA;&#x9;&#x9;&#x9;c-21.8-26.6-59-45.4-120.4-45.4c-93.9,0-147.7,53.6-147.7,147.1v167.2c0,46.7,13.4,78.3,31,99.6c-17.8,4-31,19.8-31,38.8v34.8&#xA;&#x9;&#x9;&#x9;c0,21.2,16.5,38.4,37.4,39.7v154.9c0,22,17.8,39.8,39.8,39.8H744c16.9,0,31.2-10.5,37-25.3c18.6,19.1,45.8,29.8,79.6,29.8&#xA;&#x9;&#x9;&#x9;c31,0,56.4-9,74.7-25.3c18.4,16.3,43.8,25.3,74.7,25.3c21.9,0,41-4.5,56.8-12.9c6.7,5.2,15.2,8.4,24.4,8.4h111.4&#xA;&#x9;&#x9;&#x9;c7.5,0,14.4-2.1,20.4-5.7c14.7,6.4,33,10.2,55.3,10.2c67.5,0,107.7-38.5,107.7-102.9c0-23.1-6-42-14.8-57.6&#xA;&#x9;&#x9;&#x9;c9-7.3,14.8-18.5,14.8-31v-36.1c0-18-4.8-36.5-15.9-52.1c10-7.2,16.5-18.9,16.5-32.2v-53.7&#xA;&#x9;&#x9;&#x9;C1386.7,975.7,1368.9,957.9,1346.9,957.9z"></path>
&#x9;&#x9;<path d="M822,1052c1.2,0,1.6-0.2,1.5-1.5c-0.8-10.3-1.6-20.5-2.5-30.8c-0.2-1.9,0-3.6,1.1-5.1c1.5-2,1.7-4.3,1.6-6.7&#xA;&#x9;&#x9;&#x9;c-0.3-11.3-0.5-22.6-0.7-33.8c0-1.5,0.5-1.6,1.6-0.8c4.3,2.7,8.6,5.5,13,8.2c2.2,1.4,4.4,2.7,6.8,4.2c0.4-2,0-3.8,0.2-5.6&#xA;&#x9;&#x9;&#x9;c1.8,3.5,4.6,6.3,7.3,9.1c2.4,2.4,5,4.5,8.8,4.3c1.5-0.1,3,0.2,4.5,0.4c4.2,0.6,8.3,0.6,12.4-1c1-0.4,1.7-0.9,2.2-1.9&#xA;&#x9;&#x9;&#x9;c3.6-7.4,8-14.3,12.2-21.4c1-1.6,1.6-1.5,2.9-0.5c3.8,2.9,7.7,5.6,11.9,7.9c0.8,0.4,1.3,0.8,1.9-0.5c2.7-5.7,5.6-11.3,8.5-16.8&#xA;&#x9;&#x9;&#x9;c0.8-1.4,0.4-1.8-0.8-2.5c-9.6-5.2-17.6-12.2-23.2-21.7c-3.5-6-5.9-12.4-7.4-19.2c-0.2-0.8-0.2-1.2,0.8-1.3&#xA;&#x9;&#x9;&#x9;c5.2-0.5,10.4-0.7,15.9-0.9c-2.9,5-5.7,9.8-8.6,14.6c-0.5,0.8-1,1.5-0.7,2.4c1.6,3.6,3.7,6.9,6.4,10.1c1.7-4.3,4-7.9,5.9-11.7&#xA;&#x9;&#x9;&#x9;c2.1-4,5.3-5.5,9.6-5.7c5.6-0.3,11.1-0.7,16.6-1.9c2.3-0.5,4.2-1.3,4.9-3.7c0.3-0.9,1.1-1.4,2-1.9c2.3-1.2,4.7-2.4,7-3.7&#xA;&#x9;&#x9;&#x9;c1.8-1,1.8-1.8,0.3-3.1c-1.1-0.9-2.3-1.8-3-3.2c-0.9-1.9-2.2-3.6-3.5-5.3c-2-2.5-4-5-5.9-7.5c-0.5-0.7-1.3-1.6-0.4-2.4&#xA;&#x9;&#x9;&#x9;c0.8-0.7,1.9-0.6,2.8,0.1c3.3,2.9,6.5,5.9,8.5,9.9c0.7,1.5,1.5,2.9,2.3,4.4c0.6,1.2,1.4,1.7,2.8,1.6c4.8-0.3,9.5-0.6,14.3-0.8&#xA;&#x9;&#x9;&#x9;c0.8,0,1.6-0.2,2.2-0.7c0.8-0.7,1.8-0.8,2.8-0.9c6.9-0.4,13.8-0.8,20.7-1.1c12.7-0.6,25.5-1.1,38.2-1.8c2.4-0.1,5.1,0.6,6.8-2.1&#xA;&#x9;&#x9;&#x9;c0.1-0.1,0.2-0.1,0.4-0.2c2.5-0.4,4.7-1.9,7.4-1.7c3.3,0.2,3.9-0.8,3.4-4c-0.2-1-0.5-1.7-1.8-1.5c-1.4,0.2-2.8,0.2-4.2,0.2&#xA;&#x9;&#x9;&#x9;c-1.8,0.1-3-0.9-3.1-2.6c-0.1-3.9-0.3-7.8-0.4-11.7c-0.1-3.5,0-3.5-3.5-3.4c-2.6,0.1-2.8,0.3-2.9,3.1c-0.1,1.5-0.1,2.9-0.8,4.3&#xA;&#x9;&#x9;&#x9;c-1.2,2.6-2.4,5.2-3.5,7.8c-0.9,2.2-2.4,3.1-4.9,3.3c-8.5,0.6-17,0.2-25.4,0.6c-0.6,0-1.3,0.1-1.9-0.7c2.1-0.7,4.2-0.5,6.4-0.9&#xA;&#x9;&#x9;&#x9;c-2.2-2.2-4.1-4.3-6-6.6c-0.9-1.2-2-1.8-3.6-1.6c-3.9,0.3-7.8,0.7-11.7,0.7c-4.1-0.1-8.3,1.4-12.4-0.6c-0.7-0.4-1.1,0.1-1.1,0.9&#xA;&#x9;&#x9;&#x9;c0,1.3,0,2.7,0,4c0,0.6,0.2,1.5-0.9,1.4c-1,0-0.7-0.8-0.7-1.3c-0.1-1.3-0.1-2.5-0.1-3.8c0-1.4-0.5-2.2-2.1-2.1&#xA;&#x9;&#x9;&#x9;c-2.5,0.2-4.9,0.3-7.4,0.4c-8.7,0.4-17.4,0.8-26.1,1.2c-1.2,0.1-1.5,0.4-1.4,1.5c0.1,1.4,0,2.8,0,4.6c-1.8-1.1-1.3-2.6-1.6-3.9&#xA;&#x9;&#x9;&#x9;c-0.1-0.5,0.3-1.3-0.8-1.3c-0.8,0-1.6,0.1-1.9,1.1c-0.2,0.7-0.3,1.4-0.4,2c-1.9-0.7-1.7-1.7-1-3.1c0.7-1.4,0.2-2.6-1.3-2.9&#xA;&#x9;&#x9;&#x9;c-1.2-0.3-2.8-0.6-3.4,1c-0.7,2-1.3,2.3-3.2,1.2c-0.9-0.5-1.8-0.9-2.8-0.8c-2.1,0.2-4.2,0.4-6.3,0.5c-2.2,0.1-4.4,0.9-6.3-1.2&#xA;&#x9;&#x9;&#x9;c-0.8-0.9-2.5-0.8-3.2,0.7c-0.5,1-0.6,2.5,0.7,3c2.4,0.8,1.2,2.8,1.4,4.1c0.2,1.5-1.5,1-2.3,1c-5.6,0.5-11.3,1.1-16.9,1.1&#xA;&#x9;&#x9;&#x9;c-4.5-0.1-7.8,1.2-10.1,5.1c-0.4,0.7-1.1,1.2-2.1,1.2c-2.3,0-4.6,0.2-7,0.3c-9.6,0.5-19.2,1.1-28.8,1.4c-2.8,0.1-5.7,0.9-8.6-0.2&#xA;&#x9;&#x9;&#x9;c-0.2-0.1-0.6,0.3-0.8,0.5c-1.6,1.6-3.1,3.3-3.7,5.6c-0.2,0.7-0.3,1.4-1.3,1.3c-1.1-0.1-0.8-0.9-0.8-1.5c0.1-1.5-0.5-2-2-2&#xA;&#x9;&#x9;&#x9;c-2.5,0-5.1-0.1-7.2-2c-0.8,1.7-0.6,2.9,0.9,3.7c0.9,0.5,1.9,1,2.8,1.4c0.6,0.2,1.2,0.4,1.2,1.1c0,0.8-0.8,0.5-1.3,0.6&#xA;&#x9;&#x9;&#x9;c-3.4,0.7-6.8,1.3-10.2,1.8c-3.1,0.5-3,0.3-3.5-2.8c-0.4-2.3-0.5-4.8-1.8-6.8c-1-1.6-2.6-2.4-4-3.5c-4.3-3.6-4.2-7.7,0.4-10.9&#xA;&#x9;&#x9;&#x9;c2-1.4,4.1-2.5,6.2-3.5c3.3-1.6,5.1-4.4,6.2-7.7c0.2-0.7,0.4-1.5,0.6-2.3c3.3,2.1,6.2,4.5,10.5,4.2c-0.7-1.2-1.3-2.1-1.9-3.1&#xA;&#x9;&#x9;&#x9;c0.1,0,0.1-0.1,0.2-0.1c2.2,1.7,4.5,3.5,6.9,5.4c0.3-2.1,0.6-4,0.9-5.9c4.2,1.6,5.1,0.9,4.8-3.8c0-0.5-0.1-0.9-0.1-1.4&#xA;&#x9;&#x9;&#x9;c0.1-1.4-0.7-2.7-0.4-4.1c0.8-0.2,1.4,0.7,2.3,0.4c-1.9-3.1-4.2-5.7-6.6-8.7c0.8-0.1,1.4-0.2,2.3-0.3c-5.3-4.5-9.8-9.4-15.4-12.9&#xA;&#x9;&#x9;&#x9;c-5.7-3.6-11.9-5.5-19.2-5.8c2.1-1.1,3.7-2,5.5-2.9c-7.1-0.9-13.6,0-19.9,2.6c-0.2-0.8,0.8-0.9,0.4-1.6c-1.8,0.7-3.1,1.9-4.4,3.2&#xA;&#x9;&#x9;&#x9;c-1,0.9-1,2.9-2.1,3.1c-1.2,0.2-2.5-0.8-3.8-1.3c-0.1,0.8,0.9,1,0.8,1.8c-5.1,2-8.3,5.9-10.6,10.8c0.8,0.2,1.2-0.5,2-0.5&#xA;&#x9;&#x9;&#x9;c-3.1,7.1-3.8,14.3-3.3,21.7c0.5,7.4,2.1,14.7,3,22.1c0.3,2.5,0.4,2.5-2.2,2.9c-0.1,0-0.3,0-0.4,0c-5,0.3-8.8,2.1-10.2,7.4&#xA;&#x9;&#x9;&#x9;c-0.1,0.3-0.3,0.5-0.3,0.7c-0.5,1.4-1.5,2.4-3,2.6c-1.1,0.2-1.8,0.8-2.1,1.8c-0.4,1.5-1.4,1.6-2.6,1.1c-1.9-0.7-3.7-1.4-5.6-2.1&#xA;&#x9;&#x9;&#x9;c-1.6-0.6-2.8-0.2-3.4,1.4c-0.5,1.3-1.5,1.5-2.7,1.4c-2.8-0.2-5.7-0.3-8.5-0.5c-2.1-0.1-3.9,0.5-5.6,1.6&#xA;&#x9;&#x9;&#x9;c-3.9,2.7-6.3,6.5-7.5,10.9c-2.1,7.3-1.8,14.7-1.4,22.1c0,0.6,0.2,1.2,0.5,1.7c1,2.2,1.8,4.6,2.5,6.9&#xA;&#x9;&#x9;&#x9;c5.1,16.6,10.2,33.2,15.1,49.8c2.3,8,5.8,15.7,5.5,24.3c-0.1,2,0.7,3.8,2.1,5.2c0.9,0.9,1.1,1.9,1.1,3.1&#xA;&#x9;&#x9;&#x9;c-0.1,3.6-0.1,7.3-0.1,10.9 M1031.7,885.9c1.4,0,2.6,1.3,2.6,2.7c0,1.4-1.2,2.4-2.8,2.4c-1.4,0-2.7-1.1-2.6-2.4&#xA;&#x9;&#x9;&#x9;C1028.8,887.3,1030.3,885.9,1031.7,885.9z M1008.9,898.4c4.6-0.2,9.1-0.4,13.7-0.6c1.6-0.1,2.4,0.8,3.4,2.3&#xA;&#x9;&#x9;&#x9;c-7.5,0.3-14.7,0.7-22.3,1C1005.4,899.1,1007,898.4,1008.9,898.4z M977.8,886.7c4-0.2,8.1-0.3,12.1-0.4c0.6,0,1.3-0.1,1.8,0.2&#xA;&#x9;&#x9;&#x9;c-0.1,0.6-0.5,0.5-0.8,0.6c-4.3,0.5-8.7,0.6-13.1,0.8c-0.5,0-1.2,0.3-1.2-0.5C976.5,886.4,977.3,886.7,977.8,886.7z M969.3,892.7&#xA;&#x9;&#x9;&#x9;c0.1-0.7,0.9-0.9,1.6-1c5.3-0.3,10.6-0.6,15.9-0.9c0.5,0,1.1,0.1,1.6,0.3c0.9,0.4,1.8,1,1.6,2c-0.1,0.9-1.2,0.7-1.8,0.7&#xA;&#x9;&#x9;&#x9;c-3.8,0.3-7.7,0.5-10.9,0.8c-2.5-0.1-4.6,0.4-6.5-0.5C970.1,893.8,969.1,893.7,969.3,892.7z M970.2,901c1.1-0.8,2.4-1.1,3.7-1.2&#xA;&#x9;&#x9;&#x9;c6.8-0.3,13.5-0.5,20.3-0.9c1.9-0.1,3.3,0.6,4.7,2.2c-6.2,0.3-12,0.7-17.8,1c-3.5,0.2-7,0.3-10.5,0.4c-0.5,0-1.2,0.3-1.4-0.3&#xA;&#x9;&#x9;&#x9;C968.9,901.5,969.7,901.4,970.2,901z M964.5,891.8c0.7,0.1,0.8,0.6,0.8,1.1v4.2h0.1c0,1.1,0,2.2,0,3.4c0,0.5,0.3,1.2-0.5,1.3&#xA;&#x9;&#x9;&#x9;c-0.7,0.1-1.1-0.5-1.2-1.1c-0.1-1.1-0.1-2.2-0.1-3.4c0-1.5,0-2.9,0-4.4C963.8,892.4,963.7,891.8,964.5,891.8z M949.5,893&#xA;&#x9;&#x9;&#x9;c2-0.1,4.1-0.8,6,0.7c-1.9,0.2-3.9,0.3-5.8,0.5c-0.4,0-1,0.2-1.1-0.5C948.5,893.1,949,893,949.5,893z M927.2,890.9&#xA;&#x9;&#x9;&#x9;c0.6-0.4,1.2-0.3,1.8,0.1c2,1.2,3.3,3.2,4.8,5c2.1,2.4,4,5,5.9,7.5c0.8,1,1.5,2.2,1.7,3.5c0.2,1.3,0,2.3-1.6,2&#xA;&#x9;&#x9;&#x9;c-1.2,0.1-2.1-0.3-2.8-1.1c-3.6-4.4-6.7-9.2-9.8-13.9c-0.2-0.4-0.4-0.8-0.5-1.3C926.5,892,926.6,891.3,927.2,890.9z M919.1,892&#xA;&#x9;&#x9;&#x9;c0.6-0.7,1.4-0.6,2.2-0.2c1.2,0.7,2.3,1.6,3.2,2.7c2.8,3.5,5.5,6.9,8,10.6c0.8,1.3,1.5,2.5,1.2,4.1c-0.3,2.3-0.6,4.7-1,7.1&#xA;&#x9;&#x9;&#x9;c-0.1,0.7-0.2,1.5-0.8,2c-0.3,0.2-0.7,0.6-1,0.5c-0.5,0-0.4-0.6-0.4-1c-0.2-1.7-0.4-3.4-0.5-5.1c-0.2-2.8-0.9-5.1-2.7-7.5&#xA;&#x9;&#x9;&#x9;c-2.8-3.6-5-7.6-7.8-11.2C918.9,893.4,918.5,892.7,919.1,892z M913.4,895.9c0.7-0.7,1.5-0.8,2.3-0.2c0.5,0.4,1,0.8,1.4,1.3&#xA;&#x9;&#x9;&#x9;c2.8,3.4,5.3,7,7.4,10.8c1.8,3.3,1.1,7,0.8,10.5c-0.1,1.4-1.8,1-2.8,1c-1.2-0.1-2-0.7-2.1-2c-0.1-1.2,0-2.5,0-4.2&#xA;&#x9;&#x9;&#x9;c1.3-4.5-1.9-7.8-4.3-11.4c-0.9-1.3-1.8-2.6-2.7-3.9C913.1,897.2,912.6,896.5,913.4,895.9z M881.1,922.8c2.3,5.4,5,10.7,7.5,16&#xA;&#x9;&#x9;&#x9;C885.2,933.9,882.7,928.5,881.1,922.8z M911.7,958.7c-9.8-2.2-29-29.8-28.6-40.7C888.7,934.2,897.6,948,911.7,958.7z M885.9,908.5&#xA;&#x9;&#x9;&#x9;c-0.8,0-1.4-0.6-1.4-1.4c0-0.8,0.6-1.4,1.4-1.4c0.8,0,1.4,0.6,1.4,1.4C887.3,907.8,886.7,908.5,885.9,908.5z M873.5,896.5&#xA;&#x9;&#x9;&#x9;c8.7-0.5,17.4-1,26.2-1.6c1.5-0.1,2.2,0.5,2.1,2c-0.1,1.2,0.1,2.3-0.3,3.7c-0.9-0.7-0.6-1.6-0.6-2.2c-0.1-1.3-0.6-2-2-1.8&#xA;&#x9;&#x9;&#x9;c-3.3,0.3-6.7,0.6-10.1,0.5c0,0.9,0.8,1,1,1.8c-2.2,0.1-4.4,0.2-6.6,0.4c-3.2,0.2-6.5,0.3-9.7,0.2c-1.2,0-1.4-0.5-1.5-1.6&#xA;&#x9;&#x9;&#x9;C872,896.8,872.6,896.6,873.5,896.5z M872,906.6c0.8,0,1.4,0.6,1.4,1.4c0,0.8-0.6,1.4-1.4,1.4c-0.8,0-1.4-0.6-1.4-1.4&#xA;&#x9;&#x9;&#x9;C870.7,907.2,871.3,906.6,872,906.6z M862.2,929.3c0.8,0.2,0.7,1,0.8,1.6c0.2,0.8,0.3,1.5,0.7,2.4c0.4-2.2,0.3-4.8,3.7-5&#xA;&#x9;&#x9;&#x9;c2.2,6.7,5.1,13.3,9,19.5c0.5,0.9,0.3,1.4-0.4,2c-2.2,2.1-4.5,4.1-6.6,6.3c-0.7,0.7-1,0.2-1.4-0.2c-1.3-1.2-2.7-2.4-4-3.6&#xA;&#x9;&#x9;&#x9;c-0.7-0.6-1.3-0.8-2.3-0.4c-1.8,0.8-3.5,0.6-4.9-1c-3.4-4-7.2-7.8-10.4-12c-0.6-0.8-1.2-1.6-0.1-2.5c0.5-0.5,0.6-1.2,0.6-1.9&#xA;&#x9;&#x9;&#x9;c-0.2-2.2,1-2.5,2.9-2.5c2.6,0,5.3-0.3,7.9-0.5c1.3-0.1,2.2-0.6,3.1-1.6C861.1,929.8,861.5,929.1,862.2,929.3z M858.2,907.5&#xA;&#x9;&#x9;&#x9;c0.8,0,1.4,0.6,1.4,1.4c0,0.8-0.6,1.4-1.4,1.4s-1.4-0.6-1.4-1.4C856.8,908.1,857.4,907.5,858.2,907.5z M844.3,908.4&#xA;&#x9;&#x9;&#x9;c0.8,0,1.4,0.6,1.4,1.4c0,0.8-0.6,1.4-1.4,1.4c-0.8,0-1.4-0.6-1.4-1.4C842.9,909,843.5,908.4,844.3,908.4z M815.9,926.8&#xA;&#x9;&#x9;&#x9;c0.7-1.2,2-1.7,3.3-2.2c8.5-2.9,17.1-5.3,26.1-6c1.7-0.1,3.3,0.3,4.9,0.5c2.5,0.2,5-0.1,7.6-0.3c1.3-0.1,1.7,0.4,1.8,1.6&#xA;&#x9;&#x9;&#x9;c0.1,2.5,0.3,5,0.5,7.5c0.2,1.5-0.3,2.3-1.8,2.5c-3.3,0.4-6.6,0.5-9.9,0.6c-1.6,0-3.2-2.5-2.8-4.1c0.2-0.7,0.7-0.6,1.1-0.6&#xA;&#x9;&#x9;&#x9;c1.2-0.1,2.2,0.3,3.2,0.9c1.8,1,3.7,0.8,5.5-0.1c0.3-0.2,0.8-0.4,0.8-0.8c0-0.5-0.5-0.5-0.9-0.6c-2.1-0.5-4.1-0.9-5.6-2.7&#xA;&#x9;&#x9;&#x9;c-0.2-0.2-0.8-0.2-1.1-0.1c-3.4,0.2-6.7,0.5-10.1,0.8c-1.3,0.1-0.7,0.8-0.3,1.3c1.6,1.8,3.3,3.5,4.9,5.2c0.3,0.3,0.6,0.7,0.9,1.1&#xA;&#x9;&#x9;&#x9;c0.5,0.7,0.6,1.6,0.1,2.2c-0.6,0.7-1.2-0.1-1.8-0.3c-0.8-0.3-1.7-1.6-2.3-0.8c-0.5,0.7,0.6,1.6,1.2,2.3c1.4,1.6,3,3.1,2.1,5.6&#xA;&#x9;&#x9;&#x9;c-0.3,0.9-0.6,1.2-1.5,0.5c-1.1-0.8-2-1.9-3.5-2.3c0,1.3,0.7,2,1.3,2.9c1,1.3,2,2.7,1.8,4.5c-0.1,1.4-0.7,2-2.1,1.3&#xA;&#x9;&#x9;&#x9;c-0.3-0.1-0.5-0.2-0.7-0.4c-2.3-2.5-4.9-1.9-7.7-1c-4.1,1.4-8.3,2.2-12.7,1.4c-1.6-0.3-2.7,0.5-3.7,1.4&#xA;&#x9;&#x9;&#x9;c-6.9,5.8-13.2,12.1-19.7,18.2c-11.3,10.6-23.4,20.2-37.2,27.3c-0.8,0.4-1.6,1.2-2.4,0.7c-0.8-0.6-0.6-1.7-0.3-2.6&#xA;&#x9;&#x9;&#x9;c0.4-1.2-0.1-1.5-1.2-1.5c-0.9,0-1.7-0.1-2.6-0.1c-5-0.3-8.2-4.3-7.5-9.3c0.6-4.2,1.7-8.3,3.4-12.2c0.3-0.6,0.8-1.1,0.4-2.1&#xA;&#x9;&#x9;&#x9;c-4.5,4.7-6.6,10.5-8.4,16.5c-2.7-4.3,0.8-15.5,6.5-20.2c0.3,0.8-0.6,1.3-0.6,2.3c5.1-4.6,11.4-6.7,17.5-9&#xA;&#x9;&#x9;&#x9;c4.1-1.5,8.2-3.1,12.2-4.9c8.8-4,17.1-9,25.6-13.6c2-1.1,3.9-2.3,5.9-3.2C809.9,933.2,813.5,930.8,815.9,926.8z M783,913.1&#xA;&#x9;&#x9;&#x9;c1.1-0.2,2.2-0.4,3.1,0.2c4,2.6,8.3,1.3,12.5,1c0.4,0,0.8-0.1,1.2-0.2c0,0.1,0.1,0.2,0.1,0.3c-2.7,0.9-5.3,1.9-8,2.8&#xA;&#x9;&#x9;&#x9;c-0.8,0.3-1.8,0.3-2.5,0c-3.4-1.4-6.9-0.8-10.4-0.3c-13.4,1.8-26.8,3.6-40.1,5.4c-1,0.1-2.1,0.1-3.2,0c5.5-1.5,11-2.9,16.7-3.9&#xA;&#x9;&#x9;&#x9;C762.6,916.7,772.8,914.9,783,913.1z"></path>
&#x9;&#x9;<path d="M865.9,897.1c0.7,0,1.4,0,1.8-0.6c1-1.5,2.2-2.7,3.8-4.2c-1.8,0-3.2-0.1-4.7,0c-11.9,0.5-23.8,1.3-35.8,1.5&#xA;&#x9;&#x9;&#x9;c-4.6,0.1-7,2.6-9.7,6.1c5.3-0.3,10.1-0.5,14.9-0.8C846.2,898.3,856.1,897.7,865.9,897.1z"></path>
&#x9;&#x9;<path d="M801.3,888.4c-3-0.1-5.7,0.9-8.9,1.9c1.9,1,3.3,1.8,4.8,2.4c1.5,0.7,3,1.4,4.6,1.8c4.1,1.2,9.2-0.9,11.1-4.6&#xA;&#x9;&#x9;&#x9;c0.5-1-0.4-0.9-0.9-0.9C808.4,888.9,804.8,888.5,801.3,888.4z"></path>
&#x9;&#x9;<path d="M1056.6,891.8L1056.6,891.8C1056.6,891.8,1056.6,891.8,1056.6,891.8C1056.6,891.8,1056.6,891.8,1056.6,891.8L1056.6,891.8&#xA;&#x9;&#x9;&#x9;c-0.6-3.3-2.1-5.9-4.2-7.7c-1.5-1.3-3.2-2.2-5-2.6c0-1.3-0.1-2.5-0.1-3.9c-0.1-5.6-2.1-9.4-4.8-11.6c-2.8-2.1-5.9-2.5-8.1-2.5&#xA;&#x9;&#x9;&#x9;c-0.6,0-1.2,0-2,0.1c-4,0.2-7.4,1.3-9.7,3.8c-2.4,2.4-3.6,5.9-3.8,10l0,0l0,0.6c-0.7,1.4-1.3,2.8-1.9,4.2&#xA;&#x9;&#x9;&#x9;c-3.4,0.2-6.9,0.2-10.6,0.2h0c-0.2,0-0.3,0-0.5,0c-1.1-1.2-2.3-2.4-3.3-3.8l0,0c-2.9-3.7-7.2-5.8-11.8-5.8h-0.1l-1.1,0l-0.1,0&#xA;&#x9;&#x9;&#x9;l-2.2,0.2c-2.8,0.2-5.4,0.4-7.7,0.4l-1.2,0h0c-1.6,0-3.1,0.1-4.6,0.3c-0.9,0.1-1.7,0.2-2.5,0.2l-0.5,0c-1.4-0.7-2.9-1-4.5-1.1&#xA;&#x9;&#x9;&#x9;c-1.4-0.5-3-0.8-4.6-0.8h0l-1.2,0.1l-0.1,0l0,0c-1.8,0.2-3.6,0.2-5.4,0.3l-2.9,0.1c-8.2,0.4-16.4,0.8-24.7,1.1l0,0&#xA;&#x9;&#x9;&#x9;c-0.4,0-0.7,0.1-1,0.1c-1.3-0.9-2.8-1.6-4.4-1.9c-0.8-0.2-2.2-0.5-3.9-0.5c-2.3,0-4.6,0.6-6.5,1.7c-0.3,0-0.7-0.1-1.1-0.1h-0.1&#xA;&#x9;&#x9;&#x9;l-1.1,0l0,0l-1.7,0.2c-1.4,0.1-2.8,0.3-4.2,0.3l0,0c-0.2,0-0.5,0-0.7,0c-2-1.2-4.2-1.8-6.5-1.8c-5.1,0-9.7,3-11.8,7.6&#xA;&#x9;&#x9;&#x9;c-0.4,0.8-0.7,1.7-0.9,2.6c-1.9,0.1-3.7,0.3-5.5,0.3l-1,0c-0.5,0-0.8,0-1.1,0.1c-1.3-0.6-2.7-1-4.3-1h0l-3.1,0h0&#xA;&#x9;&#x9;&#x9;c-0.7,0-1.4,0-2.1,0c-3.6,0.2-7.3,0.3-10.9,0.5c-8.1,0.4-16.4,0.8-24.5,1c0,0,0,0-0.1,0c0.1-0.1,0.3-0.2,0.4-0.4&#xA;&#x9;&#x9;&#x9;c3.1-3.3,3.6-7.4,3.6-10.1c0-0.3,0-0.6,0-0.8c0.4-0.7,0.9-1.4,1.2-2.2c0.4-1.2,0.6-2.4,0.6-3.6c0-2-0.5-4-1.6-5.7&#xA;&#x9;&#x9;&#x9;c-0.9-1.4-1.8-2.7-2.7-3.9c-0.2-2.9-1.5-5.7-3.8-7.7c-1.6-1.3-3.1-2.7-4.6-4.1c-3.6-3.3-7.4-6.8-12.1-9.7c-3.2-2-6.5-3.5-9.9-4.7&#xA;&#x9;&#x9;&#x9;c-1.7-3-4.7-5.2-8.2-5.6c-2.2-0.3-4.4-0.4-6.5-0.4c-4.2,0-8.4,0.6-12.4,1.6c-0.6-0.1-1.3-0.2-1.9-0.2c-1.3,0-2.6,0.2-3.9,0.7&#xA;&#x9;&#x9;&#x9;c-3,1.1-5.2,2.8-6.8,4.3c-1.9,0.1-3.8,0.6-5.4,1.6c-1.9,1.1-3.3,2.8-4.2,4.7c-4.1,3.1-7.3,7.3-9.8,12.6c-0.7,1.5-1,3.1-1,4.7&#xA;&#x9;&#x9;&#x9;c0,0.9,0.1,1.8,0.4,2.7c-1.2,4.5-1.8,9.3-1.8,14.4c0,1.6,0.1,3.2,0.2,4.9c0.4,5.2,1.1,10.2,1.9,14.9c0,0.1,0,0.2,0.1,0.4&#xA;&#x9;&#x9;&#x9;c-5.5,2.4-8.6,6.6-10.2,10.4l-0.3-0.1l0,0c-1.6-0.6-3.3-0.9-5-0.9c-3,0-5.8,1-8.1,2.8c-0.3,0-0.6,0-0.9,0&#xA;&#x9;&#x9;&#x9;c-1.3-0.1-2.5-0.1-3.8-0.2l0,0l-1.1,0l0,0h0c-4.1,0-8,1.3-11.4,3.7c-5.8,4-9.8,9.8-11.8,16.9c-1.7,5.7-2.1,11.3-2.1,16.8&#xA;&#x9;&#x9;&#x9;c0,2.9,0.1,5.8,0.3,8.8h0c0,0,0,0,0,0c0,0,0,0,0,0h0c0.1,2.5,0.9,4.5,1.5,5.9l0,0l0,0c0.8,1.7,1.4,3.7,2,5.5l3.3,10.9&#xA;&#x9;&#x9;&#x9;c4,13,7.9,25.9,11.8,38.9c0.6,1.9,1.2,3.8,1.8,5.7c1.7,5.2,3.2,10,3.2,14.2l0,0.8l0,0.8c0,3.6,1.1,7,3.2,10c0,1.1,0,2.2,0,3.3&#xA;&#x9;&#x9;&#x9;c0,1.8,0,3.5-0.1,5.2l0,0l0,0.5c0,0.2,2.4,1.8,2.4,2h2.1c0-0.2,0-1.8,0-2l0-0.4l0,0c0-1.7,0.1-3.5,0.1-5.3c0-1.3,0-2.6,0-3.9&#xA;&#x9;&#x9;&#x9;l0-0.8l-0.5-0.6c-1.8-2.4-2.7-5.1-2.7-8l0-0.6l0-0.9c0-5.3-1.7-10.4-3.5-15.6c-0.6-1.9-1.2-3.7-1.8-5.6&#xA;&#x9;&#x9;&#x9;c-3.8-13-7.8-25.9-11.8-38.9l-3.3-10.9c-0.6-1.8-1.3-4-2.2-6l0,0c-0.5-1.2-1-2.6-1.1-4.3l0,0l0,0c-0.2-2.9-0.3-5.8-0.3-8.6&#xA;&#x9;&#x9;&#x9;c0-5.3,0.4-10.4,1.9-15.6c1.8-6.2,5.2-11,10.1-14.5c2.7-1.9,5.7-2.9,8.8-2.9l1,0c1.3,0.1,2.6,0.1,3.8,0.2c0.6,0,1.1,0,1.6,0.1&#xA;&#x9;&#x9;&#x9;l0.9,0.1l0.7-0.6c1.6-1.5,3.6-2.3,5.9-2.3c1.1,0,2.3,0.2,3.5,0.6l1.3,0.5l1,0.4l0.9-0.6c0.4-0.2,0.8-0.5,1.2-0.7l0.8-0.4l0.3-0.8&#xA;&#x9;&#x9;&#x9;c1.4-3.6,4-7.4,9.6-9.3l1.8-0.6l-0.3-1.9l-0.3-2.1c-0.8-4.7-1.5-9.5-1.9-14.5c-0.1-1.6-0.2-3.1-0.2-4.6c0-4.9,0.6-9.5,1.8-13.8&#xA;&#x9;&#x9;&#x9;l0.2-0.6l-0.2-0.6c-0.2-0.7-0.3-1.3-0.3-2c0-1,0.2-1.9,0.6-2.8c2.3-5,5.2-8.6,8.9-11.2l0.5-0.4l0.2-0.6c0.5-1.3,1.5-2.4,2.7-3.2&#xA;&#x9;&#x9;&#x9;c1-0.6,2.2-1,3.4-1l0.5,0l0.9,0l0.7-0.6c1.5-1.4,3.3-3,5.9-3.9c0.8-0.3,1.5-0.4,2.3-0.4c0.5,0,1,0.1,1.5,0.2l0.6,0.1l0.5-0.1&#xA;&#x9;&#x9;&#x9;c3.8-1,7.8-1.6,11.7-1.6c1.9,0,3.9,0.1,5.9,0.4c2.4,0.3,4.3,1.8,5.3,3.9l0.4,0.9l0.9,0.3c3.4,1.1,6.6,2.6,9.7,4.6&#xA;&#x9;&#x9;&#x9;c4.3,2.7,7.9,6,11.5,9.3c1.5,1.4,3.1,2.8,4.7,4.2c1.5,1.3,2.4,3.1,2.4,5.1v0.8l0.5,0.6c1,1.3,1.9,2.6,2.8,4.1c0.6,1,1,2.2,1,3.4&#xA;&#x9;&#x9;&#x9;c0,0.7-0.1,1.5-0.4,2.2c-0.2,0.7-0.6,1.3-1,1.8l-0.5,0.6l0,0.8c0,0.4,0,0.8,0,1.2c0,2.3-0.4,5-2.4,7.1c-0.5,0.6-1.2,1.1-2,1.5&#xA;&#x9;&#x9;&#x9;l-1.5,0.9l0.5,1.7c0.2,0.6,0.3,1,0.3,1.2l0,0.6l-0.1,2.8l2.7-0.5c1-0.2,2-0.3,3.1-0.3c8.2-0.1,16.6-0.6,24.7-1&#xA;&#x9;&#x9;&#x9;c3.6-0.2,7.3-0.4,10.9-0.5c0.6,0,1.2,0,1.9,0l3.1,0h0c1,0,2,0.3,3,0.8l0.5,0.3l0.6,0c0.7,0,1.1-0.1,1.3-0.1l1,0&#xA;&#x9;&#x9;&#x9;c2.5,0,5-0.1,7.5-0.3l1.8-0.1l0.2-1.8c0.1-1,0.4-2.1,0.9-3.1l0,0c1.4-3,4.5-5,7.8-5c1.7,0,3.4,0.5,4.8,1.5l0.7,0.4l0.8-0.1&#xA;&#x9;&#x9;&#x9;c0.4,0,0.8-0.1,1.2-0.1l0,0c1.5-0.1,3-0.2,4.4-0.3l1.5-0.1l0.9,0c0.4,0,0.9,0,1.3,0.1l0.8,0.1l0.7-0.4c1.3-0.9,3-1.4,4.8-1.4&#xA;&#x9;&#x9;&#x9;c1.2,0,2.3,0.2,3,0.4l0,0c1.3,0.3,2.5,0.8,3.5,1.6l0.8,0.6l1-0.2c0.4-0.1,0.9-0.1,1.4-0.2l0,0c8.3-0.3,16.5-0.7,24.7-1.1l2.9-0.1&#xA;&#x9;&#x9;&#x9;c1.8-0.1,3.6-0.2,5.5-0.3v0l1.1,0c1.2,0,2.3,0.2,3.3,0.6l0.4,0.2l0.4,0c1.2,0,2.3,0.3,3.4,0.9l0.1,0l0.1,0l0.4,0.1&#xA;&#x9;&#x9;&#x9;c0.4,0.1,0.7,0.1,1.4,0.1c1.1,0,2-0.1,2.9-0.2c1.4-0.1,2.8-0.3,4.2-0.3l1.2,0h0c2.6,0,5.3-0.2,8.1-0.5l2.1-0.2l1,0&#xA;&#x9;&#x9;&#x9;c3.3,0,6.2,1.4,8.4,4.1l0,0c1.4,1.7,2.7,3.3,4.2,4.8l0.7,0.7l0.9,0c0.5,0,1,0,1.4,0h0c4.2,0,8.2,0,12.2-0.3l1.3-0.1l0.5-1.2&#xA;&#x9;&#x9;&#x9;c0.9-2,1.8-3.9,2.7-5.8l0.2-0.4l0.1-1.4l0,0c0.2-3.4,1.1-5.7,2.5-7.1c1.4-1.4,3.5-2.3,6.8-2.5l0,0c0.7,0,1.3-0.1,1.8-0.1&#xA;&#x9;&#x9;&#x9;c1.7,0,3.8,0.4,5.4,1.6c1.6,1.3,3,3.4,3.1,8.2c0,2,0.1,3.8,0.2,5.7l0.1,1.9l1.9,0.2c1.6,0.2,3.2,0.8,4.5,1.9&#xA;&#x9;&#x9;&#x9;c1.3,1.1,2.3,2.7,2.7,5.1l2.2-0.4l-2.2,0.4c0.1,0.6,0.3,1.6,0.3,2.8c0,1.8-0.4,4-2,5.9c-1.2,1.4-3.2,3.1-7.4,3.1&#xA;&#x9;&#x9;&#x9;c-0.4,0-0.8,0-1.2,0l-0.7,0l-0.5,0.3l-0.7,0.3c-0.4,0.1-0.8,0.3-1.3,0.4l-0.4,0.1l-0.3,0.3c-2,1.7-4.6,2.6-8,2.6l-1.3,0l-0.1,0&#xA;&#x9;&#x9;&#x9;l-0.1,0c-7.5,0.4-14.6,0.7-21.7,1c-5.6,0.2-11.2,0.5-16.8,0.8c-4.6,0.2-9.3,0.5-13.9,0.7l-6.4,0.4l-0.5,0.3&#xA;&#x9;&#x9;&#x9;c-1.4,0.8-3,1.3-4.9,1.4l0,0c0,0-7.4,0.4-9.5,0.5l-1.2,0.1l-0.6,1.1c-0.7,1.3-1.8,2.6-4,3.8l0,0c-1.7,0.9-3.5,1.9-5.3,2.8&#xA;&#x9;&#x9;&#x9;l-0.6,0.3l-0.6,0.3l-0.3,0.6c-1.4,2.4-3.8,4.9-8.9,6l0,0c-5,1.1-10.6,1.7-17.6,2c-0.9,0.1-1.6,0-2.5,0.4c-0.4,0.2-0.9,0.6-1.1,0.9&#xA;&#x9;&#x9;&#x9;l-0.4,0.7c-0.6,1.2-1.3,2.4-1.9,3.6c-0.8,1.5-1.6,2.9-2.4,4.4l-0.7,1.5l1.2,1.1c3.4,3.2,7.3,5.9,11.8,8.3l0,0&#xA;&#x9;&#x9;&#x9;c3.2,1.7,4.6,4.2,4.7,7c0,1.4-0.4,2.8-1.2,4.4c-2.6,4.9-5.4,10.4-8.4,16.6c-1.5,3-4,4.6-6.9,4.6c-1.9,0-3.3-0.7-4-1.1l0,0&#xA;&#x9;&#x9;&#x9;c-2.3-1.2-4.5-2.6-6.9-4.1l-1.9-1.3l-1.2,2c-2.9,4.8-5.7,9.5-8.1,14.4c-1.2,2.5-3,4.1-5.8,5.2c-3.1,1.2-6.3,1.7-10,1.7&#xA;&#x9;&#x9;&#x9;c-1.8,0-3.6-0.1-5.6-0.4l0,0l-1-0.1c-0.5-0.1-1.2-0.2-2.2-0.2h0l-1,0c-6.5,0-10.8-4.2-12.9-6.2l0,0l-0.9-0.9l-0.7-0.7l-1.3,0&#xA;&#x9;&#x9;&#x9;c-1.2,0-2.4-0.3-3.5-1l-2.6-1.6c-1.4-0.9-2.8-1.7-4.2-2.6l-0.7-0.4l-3.5-2.2l0.1,4.1c0.1,6.4,0.2,12.8,0.4,19.2l0,0&#xA;&#x9;&#x9;&#x9;c0,0.3,0,0.7,0,1.1c0,2.4-0.3,5.8-2.4,9l-0.4,0.6l0.1,0.8c0.5,6,1,12,1.5,18c0.3,4.2,0.7,8.5,1,12.7l0,0.9c0,0.1,0,0.1,0,0.2h4.4&#xA;&#x9;&#x9;&#x9;c0-0.1,0-0.1,0-0.2c0-0.4,0-0.8,0-1.2c-0.3-4.2-0.7-8.5-1-12.7c-0.5-5.8-0.9-11.6-1.4-17.4c2.4-4.1,2.7-8.1,2.7-10.7&#xA;&#x9;&#x9;&#x9;c0-0.5,0-0.9,0-1.2l0,0c-0.1-5-0.2-10.1-0.3-15.1c0.5,0.3,1,0.6,1.5,0.9l2.6,1.6c1.6,1,3.4,1.5,5.2,1.6l0.4,0.4l0,0&#xA;&#x9;&#x9;&#x9;c2.1,2.1,7.5,7.4,16,7.4h0.1l1,0c0.3,0,0.8,0.1,1.5,0.2l1,0.1l0,0c2.2,0.3,4.3,0.5,6.3,0.5c4.1,0,7.9-0.7,11.5-2&#xA;&#x9;&#x9;&#x9;c3.7-1.4,6.6-3.9,8.3-7.4c2-4,4.3-8,6.7-12.1c1.8,1.1,3.5,2.2,5.3,3.1c0.8,0.4,3.1,1.7,6.1,1.7c4.7,0,8.8-2.8,10.9-7.1&#xA;&#x9;&#x9;&#x9;c3-6.2,5.7-11.6,8.4-16.5l0,0c1.1-2.1,1.7-4.3,1.7-6.4c0-4.5-2.6-8.6-7-10.9l0,0c-3.7-2-6.8-4.2-9.6-6.6c0.5-0.9,0.9-1.8,1.4-2.7&#xA;&#x9;&#x9;&#x9;c0.6-1.1,1.2-2.3,1.8-3.4l0.5,0c7.2-0.3,13-1,18.3-2.1c5.9-1.2,9.5-4.3,11.5-7.5l0.1-0.1c1.8-0.9,3.7-1.9,5.4-2.9h0c0,0,0,0,0,0&#xA;&#x9;&#x9;&#x9;c0,0,0,0,0,0l0,0c2.3-1.3,3.9-2.8,5-4.5c2.8-0.2,8.2-0.4,8.3-0.4c2.3-0.1,4.4-0.7,6.3-1.7l5.6-0.3c4.6-0.3,9.2-0.5,13.8-0.7&#xA;&#x9;&#x9;&#x9;c5.6-0.3,11.2-0.5,16.7-0.8c7.1-0.3,14.3-0.6,21.7-1l1.3,0h0c4,0,7.6-1.1,10.4-3.3c0.4-0.1,0.8-0.3,1.1-0.4l0.7-0.3&#xA;&#x9;&#x9;&#x9;c0.3,0,0.6,0,0.9,0c5.5,0,9-2.5,10.8-4.7c2.5-2.9,3-6.3,3-8.7C1057,893.7,1056.8,892.4,1056.6,891.8z M971,874L971,874L971,874&#xA;&#x9;&#x9;&#x9;L971,874z"></path>
&#x9;&#x9;<path d="M816.3,889.9c1.6-1.1,2.5-3.3,2.4-4.7c-5.2,4.6-5.6,5.7-4.2,11.6c0,0.1,0.1,0.1,0.2,0.4c0.8-1.3,0.3-2.4,0.2-3.5&#xA;&#x9;&#x9;&#x9;C814.7,892.1,814.8,890.9,816.3,889.9z"></path>
&#x9;</g>
&#x9;<polygon points="653.1,1124.4 690.5,1124.4 690.5,1318.9 744,1318.9 744,1124.4 781.3,1124.4 781.3,1089.6 653.1,1089.6 &#x9;"></polygon>
&#x9;<path d="M860.6,1085.1c-35.4,0-67.6,14.5-67.6,67v104.4c0,52.5,32.2,67,67.6,67c35.4,0,67.6-14.5,67.6-67v-104.4&#xA;&#x9;&#x9;C928.2,1099.6,896,1085.1,860.6,1085.1z M874.7,1268.7c0,9.3-2.9,18-14.2,18c-11.3,0-14.2-8.7-14.2-18v-128.8c0-9.3,2.9-18,14.2-18&#xA;&#x9;&#x9;c11.3,0,14.2,8.7,14.2,18V1268.7z"></path>
&#x9;<path d="M1010,1085.1c-35.4,0-67.6,14.5-67.6,67v104.4c0,52.5,32.2,67,67.6,67c35.4,0,67.6-14.5,67.6-67v-104.4&#xA;&#x9;&#x9;C1077.6,1099.6,1045.4,1085.1,1010,1085.1z M1024.2,1268.7c0,9.3-2.9,18-14.2,18c-11.3,0-14.2-8.7-14.2-18v-128.8&#xA;&#x9;&#x9;c0-9.3,2.9-18,14.2-18c11.3,0,14.2,8.7,14.2,18V1268.7z"></path>
&#x9;<polygon points="1144.6,1089.6 1091.2,1089.6 1091.2,1318.9 1202.6,1318.9 1202.6,1284.1 1144.6,1284.1 &#x9;"></polygon>
&#x9;<path d="M1279.6,1085.1c-41.2,0-68.6,15.8-68.6,57.3c0,74.1,81.8,75,81.8,126.9c0,13.5-5.5,17.4-14.2,17.4&#xA;&#x9;&#x9;c-10,0-14.2-3.9-14.2-17.4v-39.6H1211v42.5c0,39.6,33.2,51.2,67.3,51.2c44.8,0,68-20,68-63.1c0-70.9-81.8-82.1-81.8-120.8&#xA;&#x9;&#x9;c0-11.3,2.6-17.7,14.2-17.7c10.6,0,14.2,6.4,14.2,17.7v32.2h53.5v-36.1C1346.3,1097.3,1315.7,1085.1,1279.6,1085.1z"></path>
&#x9;<path d="M861.1,1002.1c-0.3,0-0.7,0-1,0c-7.5,0-12.4-4.8-14.4-6.8c-0.3-0.3-0.7-0.6-1-1c-0.1,0-0.3,0-0.4,0c-1.6,0-3.2-0.4-4.6-1.3&#xA;&#x9;&#x9;l-2.6-1.6c-1.4-0.9-2.8-1.7-4.2-2.6c-0.3-0.2-0.5-0.3-0.7-0.4c0.1,6.4,0.2,12.8,0.4,19.2c0,2.3,0.2,6.9-2.7,11.4c0.5,6,1,12,1.5,18&#xA;&#x9;&#x9;c0.1,1.6,0.3,3.2,0.4,4.8c14.5-9.2,24.9-22.4,31.1-39.5C862.2,1002.2,861.7,1002.1,861.1,1002.1z M761,676.6&#xA;&#x9;&#x9;c-56.8,0-107.9,23.2-107.9,107.4v167.2c0,60.2,26.2,89.2,61.8,100.8c0.6,0.2,1.2,0.4,1.8,0.5c-0.1-0.8-0.2-1.6-0.2-2.4&#xA;&#x9;&#x9;c0-1.7,0-3.5,0-5.3c0-1.3,0-2.7,0-4c-2.2-2.9-3.3-6.4-3.1-10.1c0.2-5-1.5-10.3-3.4-15.8c-0.6-1.9-1.2-3.8-1.8-5.7&#xA;&#x9;&#x9;c-3.8-12.9-7.8-25.9-11.8-38.9l-3.4-10.9c-0.5-1.9-1.2-4-2.1-5.8c-0.5-1.3-1.2-3-1.3-5.1c-0.4-8.6-0.6-16.6,1.8-24.9&#xA;&#x9;&#x9;c1.9-6.7,5.6-12,11-15.7c3.1-2.2,6.5-3.3,10.1-3.3c0.4,0,0.7,0,1.1,0c1.3,0,2.5,0.1,3.8,0.2c0.6,0,1.1,0,1.7,0.1&#xA;&#x9;&#x9;c2-1.9,4.6-2.9,7.4-2.9c1.4,0,2.8,0.3,4.2,0.8c0,0,1,0.4,1.3,0.5c0.4-0.3,1-0.6,1.5-0.8c1-2.4,2.5-5.1,5-7.2V764.3&#xA;&#x9;&#x9;c0-15,4.6-28.9,22.2-28.9c18.6,0,23.2,13.9,23.2,28.9v50.6h85.7v-40.3C869.9,695.1,823.5,676.6,761,676.6z M1109.4,815.4v-57.8&#xA;&#x9;&#x9;c0-61.4-49-81-106.8-81c-66.1,0-109.9,25.3-109.9,91.9c0,52.9,26,82.5,54.8,106.4c1.5-0.1,3.1-0.1,4.6-0.2l2.9-0.1&#xA;&#x9;&#x9;c1.8-0.1,3.7-0.1,5.5-0.3c0.2,0,0.9,0,1.1,0c1.5,0,2.9,0.3,4.2,0.8c1.5,0,3,0.4,4.5,1.1c0,0,0.4,0,1,0c0.9,0,1.8-0.1,2.7-0.2&#xA;&#x9;&#x9;c1.5-0.1,2.9-0.3,4.4-0.3c0,0,1.2,0,1.2,0c2.5,0,5.2-0.2,8-0.4l2.2-0.2c0.2,0,0.9,0,1.1,0c4,0,7.6,1.8,10.1,4.9&#xA;&#x9;&#x9;c1.3,1.7,2.7,3.2,4.1,4.6h1.5c4.2,0,8.1,0,12.1-0.3c0.8-2,1.8-3.9,2.7-5.9c0-0.3,0-0.6,0-0.9c0.4-7.6,4.2-11.4,11.4-11.7&#xA;&#x9;&#x9;c0.8,0,1.4-0.1,1.9-0.1c3.9,0,10.6,1.5,10.8,11.9c0,1.9,0.1,3.8,0.1,5.7c4,0.4,8.2,3.1,9.1,8.8c0.3,1.6,1.2,6.5-2.2,10.5&#xA;&#x9;&#x9;c-1.5,1.8-4.3,3.9-9.1,3.9c-0.4,0-0.9,0-1.4,0c-0.1,0.1-0.6,0.3-1,0.4c-0.4,0.1-0.8,0.3-1.3,0.4c-2.4,2-5.6,3.1-9.5,3.1l-1.3,0&#xA;&#x9;&#x9;c-7.5,0.4-14.6,0.7-21.8,1c-4.4,0.2-8.9,0.4-13.3,0.6c17.5,16,30.1,34,30.1,59.8c0,21.6-8.7,27.9-22.7,27.9&#xA;&#x9;&#x9;c-16,0-22.7-6.2-22.7-27.9v-59c-0.7,0-1.4,0-2,0.1l-5.9,0.4c-1.7,1-3.7,1.5-6,1.7c0,0-7.4,0.4-9.5,0.5c-0.8,1.6-2.3,3.3-4.9,4.7&#xA;&#x9;&#x9;c-1.7,1-3.5,1.9-5.4,2.8l-0.6,0.3c-1.6,2.9-4.7,5.9-10.4,7.1c-5.2,1.1-10.9,1.7-18,2.1c-1.8,0-1.9,0.2-2.2,0.9&#xA;&#x9;&#x9;c-0.6,1.2-1.3,2.4-1.9,3.7c-0.8,1.5-1.6,2.9-2.3,4.3c3.3,3,7,5.7,11.4,8c5.6,3,7.4,8.7,4.4,14.4c-2.7,4.9-5.4,10.3-8.4,16.5&#xA;&#x9;&#x9;c-1.8,3.7-5.1,5.8-8.9,5.8c-2.5,0-4.3-1-5.1-1.4c-2.3-1.2-4.6-2.7-7.1-4.2c-0.9,1.5-1.8,3-2.7,4.4c4.6,56.7,55.3,73.7,107.5,73.7&#xA;&#x9;&#x9;c71.8,0,108.9-32,108.9-101.2c0-113.5-131.1-131.6-131.1-193.6c0-18.1,4.1-28.4,22.7-28.4c17,0,22.7,10.3,22.7,28.4v51.6H1109.4z"></path>
&#x9;<path d="M1228.2,962c38.7-66.1,118.7-103.8,118.7-188.4c0-77.4-57.3-97-106.3-97c-48.5,0-111.5,8.8-111.5,98.1v40.3h85.7v-53.2&#xA;&#x9;&#x9;c0-18.1,8.3-26.3,23.2-26.3c15,0,23.2,8.3,23.2,26.3c0,73.3-132.1,126-132.1,244.2v45.4h217.8v-53.7h-132.1&#xA;&#x9;&#x9;C1214.7,982.7,1221.5,973.9,1228.2,962z"></path>
</g>
</svg>